# xmcd
#
# Track frame offsets:
#	150
#	21029
#	40645
#	59698
#	78227
#	96424
#	115831
#	135523
#	151553
#	169872
#	184624
#	200798
#	220333
#	237745
#
# Disc length: 3383 seconds
#
# Revision: 1
# Processed by: cddbd v1.4PL0 Copyright (c) Steve Scherf et al.
# Submitted via: EasyCDDAExtractor 5.0.7
#
DISCID=bd0d350e
DTITLE=UN - 3.5집
DYEAR=2003
DGENRE=Ballad
TTITLE0=Feeling
TTITLE1=유리
TTITLE2=나의 신부에게
TTITLE3=서약
TTITLE4=Thank You
TTITLE5=아침
TTITLE6=유리(MR)
TTITLE7=사랑을 믿어
TTITLE8=말하자면
TTITLE9=Summer Story
TTITLE10=전화번호 주면 안돼요
TTITLE11=니가 여자로 느껴져
TTITLE12=White Dream In Love
TTITLE13=사랑을 믿어(MR)
EXTD=
EXTT0=
EXTT1=
EXTT2=
EXTT3=
EXTT4=
EXTT5=
EXTT6=
EXTT7=
EXTT8=
EXTT9=
EXTT10=
EXTT11=
EXTT12=
EXTT13=
PLAYORDER=
